<mxfile host="app.diagrams.net" modified="2024-04-23T06:46:54.608Z" agent="Mozilla/5.0 (Windows NT 10.0; Win64; x64) AppleWebKit/537.36 (KHTML, like Gecko) Chrome/123.0.0.0 Safari/537.36" version="24.2.8" etag="Lkj9GmjIpLzGlHnWctrT" type="github">
  <diagram name="Page-1" id="cTg7fm5jRkxxKYKRb6a_">
    <mxGraphModel>
      <root>
        <mxCell id="0" />
        <mxCell id="1" parent="0" />
      </root>
    </mxGraphModel>
  </diagram>
</mxfile>
